<svg width="40" height="40" viewBox="0 0 40 40" fill="none" xmlns="http://www.w3.org/2000/svg">
<g clip-path="url(#clip0_58_473)">
<path d="M6.66666 10H8.88888V12.2222H6.66666V10Z" fill="#32CD32"/>
<path d="M11.1111 10H26.6667V12.2222H11.1111V10Z" fill="#32CD32"/>
<path d="M6.66666 18.8889H8.88888V21.1111H6.66666V18.8889Z" fill="#32CD32"/>
<path d="M11.1111 18.8889H26.6667V21.1111H11.1111V18.8889Z" fill="#32CD32"/>
<path d="M35.5556 5.55554H4.44445C3.85508 5.55554 3.28985 5.78967 2.8731 6.20642C2.45636 6.62316 2.22223 7.18839 2.22223 7.77776V32.2222C2.22223 32.8116 2.45636 33.3768 2.8731 33.7936C3.28985 34.2103 3.85508 34.4444 4.44445 34.4444H35.5556C36.1449 34.4444 36.7102 34.2103 37.1269 33.7936C37.5437 33.3768 37.7778 32.8116 37.7778 32.2222V7.77776C37.7778 7.18839 37.5437 6.62316 37.1269 6.20642C36.7102 5.78967 36.1449 5.55554 35.5556 5.55554ZM4.44445 7.77776H35.5556V14.4444H4.44445V7.77776ZM4.44445 16.6667H35.5556V23.3333H4.44445V16.6667ZM4.44445 32.2222V25.5555H35.5556V32.2222H4.44445Z" fill="#32CD32"/>
<path d="M6.66666 27.7778H8.88888V30H6.66666V27.7778Z" fill="#32CD32"/>
<path d="M11.1111 27.7778H26.6667V30H11.1111V27.7778Z" fill="#32CD32"/>
</g>
<defs>
<clipPath id="clip0_58_473">
<rect width="40" height="40" fill="white"/>
</clipPath>
</defs>
</svg>
