<svg width="40" height="40" viewBox="0 0 40 40" fill="none" xmlns="http://www.w3.org/2000/svg">
<path d="M5.00002 8.33333V7.5C4.77901 7.5 4.56705 7.5878 4.41076 7.74408C4.25448 7.90036 4.16669 8.11232 4.16669 8.33333H5.00002ZM35 8.33333H35.8334C35.8334 8.11232 35.7456 7.90036 35.5893 7.74408C35.433 7.5878 35.221 7.5 35 7.5V8.33333ZM5.00002 9.16667H35V7.5H5.00002V9.16667ZM34.1667 8.33333V28.3333H35.8334V8.33333H34.1667ZM31.6667 30.8333H8.33335V32.5H31.6667V30.8333ZM5.83335 28.3333V8.33333H4.16669V28.3333H5.83335ZM8.33335 30.8333C7.67031 30.8333 7.03443 30.5699 6.56559 30.1011C6.09675 29.6323 5.83335 28.9964 5.83335 28.3333H4.16669C4.16669 29.4384 4.60567 30.4982 5.38708 31.2796C6.16848 32.061 7.22828 32.5 8.33335 32.5V30.8333ZM34.1667 28.3333C34.1667 28.9964 33.9033 29.6323 33.4345 30.1011C32.9656 30.5699 32.3297 30.8333 31.6667 30.8333V32.5C32.7718 32.5 33.8316 32.061 34.613 31.2796C35.3944 30.4982 35.8334 29.4384 35.8334 28.3333H34.1667Z" fill="#32CD32"/>
<path d="M5 8.33325L20 23.3333L35 8.33325" stroke="#32CD32" stroke-linecap="round" stroke-linejoin="round"/>
</svg>
