<svg width="50" height="50" viewBox="0 0 50 50" fill="none" xmlns="http://www.w3.org/2000/svg">
<path d="M10.4166 42.7084C8.96942 42.7084 7.74026 42.2015 6.72915 41.1876C5.71526 40.1765 5.20831 38.9473 5.20831 37.5001V22.9168C5.20831 21.4696 5.71526 20.2404 6.72915 19.2293C7.73887 18.2154 8.96803 17.7084 10.4166 17.7084C11.2736 17.7084 12.0597 17.8994 12.775 18.2814C13.4903 18.6633 14.1028 19.1668 14.6125 19.7918H17.7083V10.0959H36.4583V19.7918H39.5833C41.0305 19.7918 42.2597 20.2987 43.2708 21.3126C44.2847 22.3237 44.7916 23.5529 44.7916 25.0001V40.6251H14.6125C14.1014 41.2501 13.4889 41.7536 12.775 42.1355C12.0611 42.5175 11.275 42.7084 10.4166 42.7084ZM10.4166 40.6251C11.2736 40.6251 12.009 40.3189 12.6229 39.7064C13.2354 39.0925 13.5416 38.3571 13.5416 37.5001V22.9168C13.5416 22.0598 13.2354 21.3244 12.6229 20.7105C12.009 20.098 11.2736 19.7918 10.4166 19.7918C9.5597 19.7918 8.82429 20.098 8.2104 20.7105C7.5979 21.3244 7.29165 22.0598 7.29165 22.9168V37.5001C7.29165 38.3571 7.5979 39.0925 8.2104 39.7064C8.82429 40.3189 9.5597 40.6251 10.4166 40.6251ZM19.7916 19.7918H34.375V12.1793H19.7916V19.7918ZM15.625 38.5418H42.7083V25.0001C42.7083 24.1432 42.4021 23.4078 41.7896 22.7939C41.1757 22.1814 40.4403 21.8751 39.5833 21.8751H15.625V38.5418ZM31.25 29.1668C31.8403 29.1668 32.3354 28.9668 32.7354 28.5668C33.1354 28.1668 33.3347 27.6723 33.3333 27.0834C33.3319 26.4946 33.1319 26.0001 32.7333 25.6001C32.3347 25.2001 31.8403 25.0001 31.25 25.0001C30.6597 25.0001 30.1653 25.2001 29.7666 25.6001C29.368 26.0001 29.168 26.4946 29.1666 27.0834C29.1653 27.6723 29.3653 28.1675 29.7666 28.5689C30.168 28.9703 30.6625 29.1696 31.25 29.1668ZM37.5 29.1668C38.0903 29.1668 38.5854 28.9668 38.9854 28.5668C39.3854 28.1668 39.5847 27.6723 39.5833 27.0834C39.5819 26.4946 39.3819 26.0001 38.9833 25.6001C38.5847 25.2001 38.0903 25.0001 37.5 25.0001C36.9097 25.0001 36.4153 25.2001 36.0166 25.6001C35.618 26.0001 35.418 26.4946 35.4166 27.0834C35.4153 27.6723 35.6153 28.1675 36.0166 28.5689C36.418 28.9703 36.9125 29.1696 37.5 29.1668ZM31.25 35.4168C31.8403 35.4168 32.3354 35.2168 32.7354 34.8168C33.1354 34.4168 33.3347 33.9223 33.3333 33.3334C33.3319 32.7446 33.1319 32.2501 32.7333 31.8501C32.3347 31.4501 31.8403 31.2501 31.25 31.2501C30.6597 31.2501 30.1653 31.4501 29.7666 31.8501C29.368 32.2501 29.168 32.7446 29.1666 33.3334C29.1653 33.9223 29.3653 34.4175 29.7666 34.8189C30.168 35.2203 30.6625 35.4196 31.25 35.4168ZM37.5 35.4168C38.0903 35.4168 38.5854 35.2168 38.9854 34.8168C39.3854 34.4168 39.5847 33.9223 39.5833 33.3334C39.5819 32.7446 39.3819 32.2501 38.9833 31.8501C38.5847 31.4501 38.0903 31.2501 37.5 31.2501C36.9097 31.2501 36.4153 31.4501 36.0166 31.8501C35.618 32.2501 35.418 32.7446 35.4166 33.3334C35.4153 33.9223 35.6153 34.4175 36.0166 34.8189C36.418 35.2203 36.9125 35.4196 37.5 35.4168ZM18.75 35.4168H27.0833V25.0001H18.75V35.4168Z" fill="#32CD32"/>
</svg>
