<svg width="258" height="186" viewBox="0 0 258 186" fill="none" xmlns="http://www.w3.org/2000/svg">
<circle cx="3" cy="3" r="3" fill="#32CD32"/>
<circle cx="147" cy="3" r="3" fill="#32CD32"/>
<circle cx="3" cy="3" r="3" fill="#32CD32"/>
<circle cx="147" cy="3" r="3" fill="#32CD32"/>
<circle cx="39" cy="3" r="3" fill="#32CD32"/>
<circle cx="183" cy="3" r="3" fill="#32CD32"/>
<circle cx="3" cy="3" r="3" fill="#32CD32"/>
<circle cx="147" cy="3" r="3" fill="#32CD32"/>
<circle cx="75" cy="3" r="3" fill="#32CD32"/>
<circle cx="219" cy="3" r="3" fill="#32CD32"/>
<circle cx="3" cy="3" r="3" fill="#32CD32"/>
<circle cx="147" cy="3" r="3" fill="#32CD32"/>
<circle cx="75" cy="3" r="3" fill="#32CD32"/>
<circle cx="219" cy="3" r="3" fill="#32CD32"/>
<circle cx="39" cy="3" r="3" fill="#32CD32"/>
<circle cx="183" cy="3" r="3" fill="#32CD32"/>
<circle cx="111" cy="3" r="3" fill="#32CD32"/>
<circle cx="255" cy="3" r="3" fill="#32CD32"/>
<circle cx="3" cy="39" r="3" fill="#32CD32"/>
<circle cx="147" cy="39" r="3" fill="#32CD32"/>
<circle cx="3" cy="39" r="3" fill="#32CD32"/>
<circle cx="147" cy="39" r="3" fill="#32CD32"/>
<circle cx="39" cy="39" r="3" fill="#32CD32"/>
<circle cx="183" cy="39" r="3" fill="#32CD32"/>
<circle cx="3" cy="39" r="3" fill="#32CD32"/>
<circle cx="147" cy="39" r="3" fill="#32CD32"/>
<circle cx="75" cy="39" r="3" fill="#32CD32"/>
<circle cx="219" cy="39" r="3" fill="#32CD32"/>
<circle cx="3" cy="39" r="3" fill="#32CD32"/>
<circle cx="147" cy="39" r="3" fill="#32CD32"/>
<circle cx="75" cy="39" r="3" fill="#32CD32"/>
<circle cx="219" cy="39" r="3" fill="#32CD32"/>
<circle cx="39" cy="39" r="3" fill="#32CD32"/>
<circle cx="183" cy="39" r="3" fill="#32CD32"/>
<circle cx="111" cy="39" r="3" fill="#32CD32"/>
<circle cx="255" cy="39" r="3" fill="#32CD32"/>
<circle cx="3" cy="3" r="3" fill="#32CD32"/>
<circle cx="147" cy="3" r="3" fill="#32CD32"/>
<circle cx="3" cy="3" r="3" fill="#32CD32"/>
<circle cx="147" cy="3" r="3" fill="#32CD32"/>
<circle cx="39" cy="3" r="3" fill="#32CD32"/>
<circle cx="183" cy="3" r="3" fill="#32CD32"/>
<circle cx="3" cy="3" r="3" fill="#32CD32"/>
<circle cx="147" cy="3" r="3" fill="#32CD32"/>
<circle cx="75" cy="3" r="3" fill="#32CD32"/>
<circle cx="219" cy="3" r="3" fill="#32CD32"/>
<circle cx="3" cy="3" r="3" fill="#32CD32"/>
<circle cx="147" cy="3" r="3" fill="#32CD32"/>
<circle cx="75" cy="3" r="3" fill="#32CD32"/>
<circle cx="219" cy="3" r="3" fill="#32CD32"/>
<circle cx="39" cy="3" r="3" fill="#32CD32"/>
<circle cx="183" cy="3" r="3" fill="#32CD32"/>
<circle cx="111" cy="3" r="3" fill="#32CD32"/>
<circle cx="255" cy="3" r="3" fill="#32CD32"/>
<circle cx="3" cy="39" r="3" fill="#32CD32"/>
<circle cx="147" cy="39" r="3" fill="#32CD32"/>
<circle cx="3" cy="39" r="3" fill="#32CD32"/>
<circle cx="147" cy="39" r="3" fill="#32CD32"/>
<circle cx="39" cy="39" r="3" fill="#32CD32"/>
<circle cx="183" cy="39" r="3" fill="#32CD32"/>
<circle cx="3" cy="39" r="3" fill="#32CD32"/>
<circle cx="147" cy="39" r="3" fill="#32CD32"/>
<circle cx="75" cy="39" r="3" fill="#32CD32"/>
<circle cx="219" cy="39" r="3" fill="#32CD32"/>
<circle cx="3" cy="39" r="3" fill="#32CD32"/>
<circle cx="147" cy="39" r="3" fill="#32CD32"/>
<circle cx="75" cy="39" r="3" fill="#32CD32"/>
<circle cx="219" cy="39" r="3" fill="#32CD32"/>
<circle cx="39" cy="39" r="3" fill="#32CD32"/>
<circle cx="183" cy="39" r="3" fill="#32CD32"/>
<circle cx="111" cy="39" r="3" fill="#32CD32"/>
<circle cx="255" cy="39" r="3" fill="#32CD32"/>
<circle cx="3" cy="75" r="3" fill="#32CD32"/>
<circle cx="147" cy="75" r="3" fill="#32CD32"/>
<circle cx="3" cy="75" r="3" fill="#32CD32"/>
<circle cx="147" cy="75" r="3" fill="#32CD32"/>
<circle cx="39" cy="75" r="3" fill="#32CD32"/>
<circle cx="183" cy="75" r="3" fill="#32CD32"/>
<circle cx="3" cy="75" r="3" fill="#32CD32"/>
<circle cx="147" cy="75" r="3" fill="#32CD32"/>
<circle cx="75" cy="75" r="3" fill="#32CD32"/>
<circle cx="219" cy="75" r="3" fill="#32CD32"/>
<circle cx="3" cy="75" r="3" fill="#32CD32"/>
<circle cx="147" cy="75" r="3" fill="#32CD32"/>
<circle cx="75" cy="75" r="3" fill="#32CD32"/>
<circle cx="219" cy="75" r="3" fill="#32CD32"/>
<circle cx="39" cy="75" r="3" fill="#32CD32"/>
<circle cx="183" cy="75" r="3" fill="#32CD32"/>
<circle cx="111" cy="75" r="3" fill="#32CD32"/>
<circle cx="255" cy="75" r="3" fill="#32CD32"/>
<circle cx="3" cy="147" r="3" fill="#32CD32"/>
<circle cx="147" cy="147" r="3" fill="#32CD32"/>
<circle cx="3" cy="147" r="3" fill="#32CD32"/>
<circle cx="147" cy="147" r="3" fill="#32CD32"/>
<circle cx="39" cy="147" r="3" fill="#32CD32"/>
<circle cx="183" cy="147" r="3" fill="#32CD32"/>
<circle cx="3" cy="147" r="3" fill="#32CD32"/>
<circle cx="147" cy="147" r="3" fill="#32CD32"/>
<circle cx="75" cy="147" r="3" fill="#32CD32"/>
<circle cx="219" cy="147" r="3" fill="#32CD32"/>
<circle cx="3" cy="147" r="3" fill="#32CD32"/>
<circle cx="147" cy="147" r="3" fill="#32CD32"/>
<circle cx="75" cy="147" r="3" fill="#32CD32"/>
<circle cx="219" cy="147" r="3" fill="#32CD32"/>
<circle cx="39" cy="147" r="3" fill="#32CD32"/>
<circle cx="183" cy="147" r="3" fill="#32CD32"/>
<circle cx="111" cy="147" r="3" fill="#32CD32"/>
<circle cx="255" cy="147" r="3" fill="#32CD32"/>
<circle cx="3" cy="111" r="3" fill="#32CD32"/>
<circle cx="147" cy="111" r="3" fill="#32CD32"/>
<circle cx="3" cy="111" r="3" fill="#32CD32"/>
<circle cx="147" cy="111" r="3" fill="#32CD32"/>
<circle cx="39" cy="111" r="3" fill="#32CD32"/>
<circle cx="183" cy="111" r="3" fill="#32CD32"/>
<circle cx="3" cy="111" r="3" fill="#32CD32"/>
<circle cx="147" cy="111" r="3" fill="#32CD32"/>
<circle cx="75" cy="111" r="3" fill="#32CD32"/>
<circle cx="219" cy="111" r="3" fill="#32CD32"/>
<circle cx="3" cy="111" r="3" fill="#32CD32"/>
<circle cx="147" cy="111" r="3" fill="#32CD32"/>
<circle cx="75" cy="111" r="3" fill="#32CD32"/>
<circle cx="219" cy="111" r="3" fill="#32CD32"/>
<circle cx="39" cy="111" r="3" fill="#32CD32"/>
<circle cx="183" cy="111" r="3" fill="#32CD32"/>
<circle cx="111" cy="111" r="3" fill="#32CD32"/>
<circle cx="255" cy="111" r="3" fill="#32CD32"/>
<circle cx="3" cy="183" r="3" fill="#32CD32"/>
<circle cx="147" cy="183" r="3" fill="#32CD32"/>
<circle cx="3" cy="183" r="3" fill="#32CD32"/>
<circle cx="147" cy="183" r="3" fill="#32CD32"/>
<circle cx="39" cy="183" r="3" fill="#32CD32"/>
<circle cx="183" cy="183" r="3" fill="#32CD32"/>
<circle cx="3" cy="183" r="3" fill="#32CD32"/>
<circle cx="147" cy="183" r="3" fill="#32CD32"/>
<circle cx="75" cy="183" r="3" fill="#32CD32"/>
<circle cx="219" cy="183" r="3" fill="#32CD32"/>
<circle cx="3" cy="183" r="3" fill="#32CD32"/>
<circle cx="147" cy="183" r="3" fill="#32CD32"/>
<circle cx="75" cy="183" r="3" fill="#32CD32"/>
<circle cx="219" cy="183" r="3" fill="#32CD32"/>
<circle cx="39" cy="183" r="3" fill="#32CD32"/>
<circle cx="183" cy="183" r="3" fill="#32CD32"/>
<circle cx="111" cy="183" r="3" fill="#32CD32"/>
<circle cx="255" cy="183" r="3" fill="#32CD32"/>
</svg>
