<svg width="42" height="41" viewBox="0 0 42 41" fill="none" xmlns="http://www.w3.org/2000/svg">
<path d="M14.8462 8.73285V1.17841M27.1538 8.73285V1.17841M8.69231 26.8635H1M8.69231 14.7764H1M27.1538 32.9071V40.4615M14.8462 32.9071V40.4615M33.3077 14.7764H41M33.3077 26.8635H41M25.6154 22.3309H19.4615M30.2308 8.73285H11.7692C10.9532 8.73285 10.1706 9.05122 9.59352 9.61791C9.01648 10.1846 8.69231 10.9532 8.69231 11.7546V29.8853C8.69231 30.6867 9.01648 31.4553 9.59352 32.022C10.1706 32.5887 10.9532 32.9071 11.7692 32.9071H30.2308C31.0468 32.9071 31.8294 32.5887 32.4065 32.022C32.9835 31.4553 33.3077 30.6867 33.3077 29.8853V11.7546C33.3077 10.9532 32.9835 10.1846 32.4065 9.61791C31.8294 9.05122 31.0468 8.73285 30.2308 8.73285Z" stroke="#32CD32" stroke-linecap="round" stroke-linejoin="round"/>
</svg>
