<svg width="298" height="111" viewBox="0 0 298 111" fill="none" xmlns="http://www.w3.org/2000/svg">
<circle cx="65" cy="28" r="20" fill="white"/>
<path d="M56.4435 24.88V70H43.8995V45.104L35.3875 70H24.8915L16.3155 44.912V70H3.7715V24.88H18.9395L30.2675 54.192L41.3395 24.88H56.4435ZM92.128 62.64H76.128L73.696 70H60.512L76.96 24.88H91.424L107.808 70H94.56L92.128 62.64ZM88.992 53.04L84.128 38.448L79.328 53.04H88.992ZM134.745 70L125.785 53.36H124.441V70H111.897V24.88H131.673C135.299 24.88 138.371 25.52 140.889 26.8C143.406 28.0373 145.305 29.7653 146.585 31.984C147.865 34.16 148.505 36.6133 148.505 39.344C148.505 42.416 147.651 45.1253 145.944 47.472C144.281 49.776 141.827 51.4187 138.585 52.4L148.761 70H134.745ZM124.441 44.784H130.649C132.355 44.784 133.635 44.3787 134.489 43.568C135.342 42.7573 135.769 41.584 135.769 40.048C135.769 38.5973 135.321 37.4667 134.425 36.656C133.571 35.8027 132.313 35.376 130.649 35.376H124.441V44.784Z" fill="#242424"/>
<path d="M182.753 62.64H166.753L164.321 70H151.137L167.585 24.88H182.049L198.433 70H185.185L182.753 62.64ZM179.617 53.04L174.753 38.448L169.953 53.04H179.617ZM200.986 47.344C200.986 42.9067 201.903 38.96 203.738 35.504C205.615 32.0053 208.26 29.296 211.674 27.376C215.087 25.4133 219.012 24.432 223.45 24.432C229.082 24.432 233.818 25.9467 237.658 28.976C241.498 31.9627 243.972 36.0373 245.082 41.2H231.578C230.767 39.4933 229.636 38.192 228.186 37.296C226.778 36.4 225.135 35.952 223.258 35.952C220.356 35.952 218.031 36.9973 216.282 39.088C214.575 41.136 213.722 43.888 213.722 47.344C213.722 50.8427 214.575 53.6373 216.282 55.728C218.031 57.776 220.356 58.8 223.258 58.8C225.135 58.8 226.778 58.352 228.186 57.456C229.636 56.56 230.767 55.2587 231.578 53.552H245.082C243.972 58.7147 241.498 62.8107 237.658 65.84C233.818 68.8267 229.082 70.32 223.45 70.32C219.012 70.32 215.087 69.36 211.674 67.44C208.26 65.4773 205.615 62.768 203.738 59.312C201.903 55.8133 200.986 51.824 200.986 47.344ZM272.654 70.448C268.43 70.448 264.547 69.4667 261.006 67.504C257.464 65.4987 254.648 62.7467 252.558 59.248C250.51 55.7067 249.486 51.7173 249.486 47.28C249.486 42.8427 250.51 38.8747 252.558 35.376C254.648 31.8347 257.464 29.0827 261.006 27.12C264.547 25.1573 268.43 24.176 272.654 24.176C276.92 24.176 280.803 25.1573 284.302 27.12C287.843 29.0827 290.638 31.8347 292.686 35.376C294.734 38.8747 295.758 42.8427 295.758 47.28C295.758 51.7173 294.734 55.7067 292.686 59.248C290.638 62.7467 287.843 65.4987 284.302 67.504C280.76 69.4667 276.878 70.448 272.654 70.448ZM272.654 58.8C275.854 58.8 278.371 57.7547 280.206 55.664C282.083 53.5733 283.022 50.7787 283.022 47.28C283.022 43.696 282.083 40.88 280.206 38.832C278.371 36.7413 275.854 35.696 272.654 35.696C269.411 35.696 266.872 36.7413 265.038 38.832C263.203 40.88 262.286 43.696 262.286 47.28C262.286 50.8213 263.203 53.6373 265.038 55.728C266.872 57.776 269.411 58.8 272.654 58.8Z" fill="white"/>
<path d="M15.7261 89.1V90.96H12.0261V103H9.74609V90.96H6.02609V89.1H15.7261ZM22.8152 103.18C21.7752 103.18 20.8352 102.947 19.9952 102.48C19.1552 102 18.4952 101.333 18.0152 100.48C17.5352 99.6133 17.2952 98.6133 17.2952 97.48C17.2952 96.36 17.5418 95.3667 18.0352 94.5C18.5285 93.6333 19.2018 92.9667 20.0552 92.5C20.9085 92.0333 21.8618 91.8 22.9152 91.8C23.9685 91.8 24.9218 92.0333 25.7752 92.5C26.6285 92.9667 27.3018 93.6333 27.7952 94.5C28.2885 95.3667 28.5352 96.36 28.5352 97.48C28.5352 98.6 28.2818 99.5933 27.7752 100.46C27.2685 101.327 26.5752 102 25.6952 102.48C24.8285 102.947 23.8685 103.18 22.8152 103.18ZM22.8152 101.2C23.4018 101.2 23.9485 101.06 24.4552 100.78C24.9752 100.5 25.3952 100.08 25.7152 99.52C26.0352 98.96 26.1952 98.28 26.1952 97.48C26.1952 96.68 26.0418 96.0067 25.7352 95.46C25.4285 94.9 25.0218 94.48 24.5152 94.2C24.0085 93.92 23.4618 93.78 22.8752 93.78C22.2885 93.78 21.7418 93.92 21.2352 94.2C20.7418 94.48 20.3485 94.9 20.0552 95.46C19.7618 96.0067 19.6152 96.68 19.6152 97.48C19.6152 98.6667 19.9152 99.5867 20.5152 100.24C21.1285 100.88 21.8952 101.2 22.8152 101.2ZM35.2291 91.8C36.0824 91.8 36.8357 91.9733 37.4891 92.32C38.1557 92.6533 38.6757 93.0733 39.0491 93.58V91.98H41.3491V103.18C41.3491 104.193 41.1357 105.093 40.7091 105.88C40.2824 106.68 39.6624 107.307 38.8491 107.76C38.0491 108.213 37.0891 108.44 35.9691 108.44C34.4757 108.44 33.2357 108.087 32.2491 107.38C31.2624 106.687 30.7024 105.74 30.5691 104.54H32.8291C33.0024 105.113 33.3691 105.573 33.9291 105.92C34.5024 106.28 35.1824 106.46 35.9691 106.46C36.8891 106.46 37.6291 106.18 38.1891 105.62C38.7624 105.06 39.0491 104.247 39.0491 103.18V101.34C38.6624 101.86 38.1357 102.3 37.4691 102.66C36.8157 103.007 36.0691 103.18 35.2291 103.18C34.2691 103.18 33.3891 102.94 32.5891 102.46C31.8024 101.967 31.1757 101.287 30.7091 100.42C30.2557 99.54 30.0291 98.5467 30.0291 97.44C30.0291 96.3333 30.2557 95.3533 30.7091 94.5C31.1757 93.6467 31.8024 92.9867 32.5891 92.52C33.3891 92.04 34.2691 91.8 35.2291 91.8ZM39.0491 97.48C39.0491 96.72 38.8891 96.06 38.5691 95.5C38.2624 94.94 37.8557 94.5133 37.3491 94.22C36.8424 93.9267 36.2957 93.78 35.7091 93.78C35.1224 93.78 34.5757 93.9267 34.0691 94.22C33.5624 94.5 33.1491 94.92 32.8291 95.48C32.5224 96.0267 32.3691 96.68 32.3691 97.44C32.3691 98.2 32.5224 98.8667 32.8291 99.44C33.1491 100.013 33.5624 100.453 34.0691 100.76C34.5891 101.053 35.1357 101.2 35.7091 101.2C36.2957 101.2 36.8424 101.053 37.3491 100.76C37.8557 100.467 38.2624 100.04 38.5691 99.48C38.8891 98.9067 39.0491 98.24 39.0491 97.48ZM54.4438 97.22C54.4438 97.6333 54.4171 98.0067 54.3638 98.34H45.9438C46.0104 99.22 46.3371 99.9267 46.9238 100.46C47.5104 100.993 48.2304 101.26 49.0838 101.26C50.3104 101.26 51.1771 100.747 51.6838 99.72H54.1437C53.8104 100.733 53.2038 101.567 52.3238 102.22C51.4571 102.86 50.3771 103.18 49.0838 103.18C48.0304 103.18 47.0838 102.947 46.2438 102.48C45.4171 102 44.7638 101.333 44.2838 100.48C43.8171 99.6133 43.5838 98.6133 43.5838 97.48C43.5838 96.3467 43.8104 95.3533 44.2638 94.5C44.7304 93.6333 45.3771 92.9667 46.2038 92.5C47.0438 92.0333 48.0038 91.8 49.0838 91.8C50.1238 91.8 51.0504 92.0267 51.8638 92.48C52.6771 92.9333 53.3104 93.5733 53.7638 94.4C54.2171 95.2133 54.4438 96.1533 54.4438 97.22ZM52.0638 96.5C52.0504 95.66 51.7504 94.9867 51.1638 94.48C50.5771 93.9733 49.8504 93.72 48.9838 93.72C48.1971 93.72 47.5238 93.9733 46.9638 94.48C46.4038 94.9733 46.0704 95.6467 45.9638 96.5H52.0638ZM59.3475 93.84V99.94C59.3475 100.353 59.4408 100.653 59.6275 100.84C59.8275 101.013 60.1608 101.1 60.6275 101.1H62.0275V103H60.2275C59.2008 103 58.4142 102.76 57.8675 102.28C57.3208 101.8 57.0475 101.02 57.0475 99.94V93.84H55.7475V91.98H57.0475V89.24H59.3475V91.98H62.0275V93.84H59.3475ZM69.8289 91.8C70.6689 91.8 71.4156 91.98 72.0689 92.34C72.7356 92.7 73.2556 93.2333 73.6289 93.94C74.0156 94.6467 74.2089 95.5 74.2089 96.5V103H71.9489V96.84C71.9489 95.8533 71.7022 95.1 71.2089 94.58C70.7156 94.0467 70.0422 93.78 69.1889 93.78C68.3356 93.78 67.6556 94.0467 67.1489 94.58C66.6556 95.1 66.4089 95.8533 66.4089 96.84V103H64.1289V88.2H66.4089V93.26C66.7956 92.7933 67.2822 92.4333 67.8689 92.18C68.4689 91.9267 69.1222 91.8 69.8289 91.8ZM87.2172 97.22C87.2172 97.6333 87.1905 98.0067 87.1372 98.34H78.7172C78.7839 99.22 79.1105 99.9267 79.6972 100.46C80.2839 100.993 81.0039 101.26 81.8572 101.26C83.0839 101.26 83.9505 100.747 84.4572 99.72H86.9172C86.5839 100.733 85.9772 101.567 85.0972 102.22C84.2305 102.86 83.1505 103.18 81.8572 103.18C80.8039 103.18 79.8572 102.947 79.0172 102.48C78.1905 102 77.5372 101.333 77.0572 100.48C76.5905 99.6133 76.3572 98.6133 76.3572 97.48C76.3572 96.3467 76.5839 95.3533 77.0372 94.5C77.5039 93.6333 78.1505 92.9667 78.9772 92.5C79.8172 92.0333 80.7772 91.8 81.8572 91.8C82.8972 91.8 83.8239 92.0267 84.6372 92.48C85.4505 92.9333 86.0839 93.5733 86.5372 94.4C86.9905 95.2133 87.2172 96.1533 87.2172 97.22ZM84.8372 96.5C84.8239 95.66 84.5239 94.9867 83.9372 94.48C83.3505 93.9733 82.6239 93.72 81.7572 93.72C80.9705 93.72 80.2972 93.9733 79.7372 94.48C79.1772 94.9733 78.8439 95.6467 78.7372 96.5H84.8372ZM91.7409 93.58C92.0743 93.02 92.5143 92.5867 93.0609 92.28C93.6209 91.96 94.2809 91.8 95.0409 91.8V94.16H94.4609C93.5676 94.16 92.8876 94.3867 92.4209 94.84C91.9676 95.2933 91.7409 96.08 91.7409 97.2V103H89.4609V91.98H91.7409V93.58ZM120.432 89.1L116.312 103H113.732L110.812 92.48L107.712 103L105.152 103.02L101.212 89.1H103.632L106.512 100.42L109.632 89.1H112.192L115.092 100.36L117.992 89.1H120.432ZM132.413 97.22C132.413 97.6333 132.386 98.0067 132.333 98.34H123.913C123.979 99.22 124.306 99.9267 124.893 100.46C125.479 100.993 126.199 101.26 127.053 101.26C128.279 101.26 129.146 100.747 129.653 99.72H132.112C131.779 100.733 131.173 101.567 130.293 102.22C129.426 102.86 128.346 103.18 127.053 103.18C125.999 103.18 125.053 102.947 124.213 102.48C123.386 102 122.733 101.333 122.253 100.48C121.786 99.6133 121.553 98.6133 121.553 97.48C121.553 96.3467 121.779 95.3533 122.233 94.5C122.699 93.6333 123.346 92.9667 124.173 92.5C125.013 92.0333 125.973 91.8 127.053 91.8C128.093 91.8 129.019 92.0267 129.833 92.48C130.646 92.9333 131.279 93.5733 131.733 94.4C132.186 95.2133 132.413 96.1533 132.413 97.22ZM130.033 96.5C130.019 95.66 129.719 94.9867 129.133 94.48C128.546 93.9733 127.819 93.72 126.953 93.72C126.166 93.72 125.493 93.9733 124.933 94.48C124.373 94.9733 124.039 95.6467 123.933 96.5H130.033ZM149.912 93.1C149.552 92.4067 149.052 91.8867 148.412 91.54C147.772 91.18 147.032 91 146.192 91C145.272 91 144.452 91.2067 143.732 91.62C143.012 92.0333 142.445 92.62 142.032 93.38C141.632 94.14 141.432 95.02 141.432 96.02C141.432 97.02 141.632 97.9067 142.032 98.68C142.445 99.44 143.012 100.027 143.732 100.44C144.452 100.853 145.272 101.06 146.192 101.06C147.432 101.06 148.438 100.713 149.212 100.02C149.985 99.3267 150.458 98.3867 150.632 97.2H145.412V95.38H153.072V97.16C152.925 98.24 152.538 99.2333 151.912 100.14C151.298 101.047 150.492 101.773 149.492 102.32C148.505 102.853 147.405 103.12 146.192 103.12C144.885 103.12 143.692 102.82 142.612 102.22C141.532 101.607 140.672 100.76 140.032 99.68C139.405 98.6 139.092 97.38 139.092 96.02C139.092 94.66 139.405 93.44 140.032 92.36C140.672 91.28 141.532 90.44 142.612 89.84C143.705 89.2267 144.898 88.92 146.192 88.92C147.672 88.92 148.985 89.2867 150.132 90.02C151.292 90.74 152.132 91.7667 152.652 93.1H149.912ZM157.6 93.58C157.934 93.02 158.374 92.5867 158.92 92.28C159.48 91.96 160.14 91.8 160.9 91.8V94.16H160.32C159.427 94.16 158.747 94.3867 158.28 94.84C157.827 95.2933 157.6 96.08 157.6 97.2V103H155.32V91.98H157.6V93.58ZM167.776 103.18C166.736 103.18 165.796 102.947 164.956 102.48C164.116 102 163.456 101.333 162.976 100.48C162.496 99.6133 162.256 98.6133 162.256 97.48C162.256 96.36 162.503 95.3667 162.996 94.5C163.489 93.6333 164.163 92.9667 165.016 92.5C165.869 92.0333 166.823 91.8 167.876 91.8C168.929 91.8 169.883 92.0333 170.736 92.5C171.589 92.9667 172.263 93.6333 172.756 94.5C173.249 95.3667 173.496 96.36 173.496 97.48C173.496 98.6 173.243 99.5933 172.736 100.46C172.229 101.327 171.536 102 170.656 102.48C169.789 102.947 168.829 103.18 167.776 103.18ZM167.776 101.2C168.363 101.2 168.909 101.06 169.416 100.78C169.936 100.5 170.356 100.08 170.676 99.52C170.996 98.96 171.156 98.28 171.156 97.48C171.156 96.68 171.003 96.0067 170.696 95.46C170.389 94.9 169.983 94.48 169.476 94.2C168.969 93.92 168.423 93.78 167.836 93.78C167.249 93.78 166.703 93.92 166.196 94.2C165.703 94.48 165.309 94.9 165.016 95.46C164.723 96.0067 164.576 96.68 164.576 97.48C164.576 98.6667 164.876 99.5867 165.476 100.24C166.089 100.88 166.856 101.2 167.776 101.2ZM190.55 91.98L187.13 103H184.73L182.51 94.86L180.29 103H177.89L174.45 91.98H176.77L179.07 100.84L181.41 91.98H183.79L186.03 100.8L188.31 91.98H190.55Z" fill="#242424"/>
</svg>
