<svg width="151" height="62" viewBox="0 0 151 62" fill="none" xmlns="http://www.w3.org/2000/svg">
<circle cx="35.5" cy="12.5" r="12.5" fill="#32CD32"/>
<path d="M30.2218 18.44V41H23.9498V28.552L19.6938 41H14.4458L10.1578 28.456V41H3.88575V18.44H11.4698L17.1338 33.096L22.6698 18.44H30.2218ZM48.064 37.32H40.064L38.848 41H32.256L40.48 18.44H47.712L55.904 41H49.28L48.064 37.32ZM46.496 32.52L44.064 25.224L41.664 32.52H46.496ZM69.3723 41L64.8923 32.68H64.2203V41H57.9483V18.44H67.8363C69.6496 18.44 71.1856 18.76 72.4443 19.4C73.7029 20.0187 74.6523 20.8827 75.2923 21.992C75.9323 23.08 76.2523 24.3067 76.2523 25.672C76.2523 27.208 75.8256 28.5627 74.9722 29.736C74.1403 30.888 72.9136 31.7093 71.2923 32.2L76.3803 41H69.3723ZM64.2203 28.392H67.3243C68.1776 28.392 68.8176 28.1893 69.2443 27.784C69.6709 27.3787 69.8843 26.792 69.8843 26.024C69.8843 25.2987 69.6603 24.7333 69.2123 24.328C68.7856 23.9013 68.1563 23.688 67.3243 23.688H64.2203V28.392Z" fill="#242424"/>
<path d="M93.3765 37.32H85.3765L84.1605 41H77.5685L85.7925 18.44H93.0245L101.217 41H94.5925L93.3765 37.32ZM91.8085 32.52L89.3765 25.224L86.9765 32.52H91.8085ZM102.493 29.672C102.493 27.4533 102.951 25.48 103.869 23.752C104.807 22.0027 106.13 20.648 107.837 19.688C109.543 18.7067 111.506 18.216 113.725 18.216C116.541 18.216 118.909 18.9733 120.829 20.488C122.749 21.9813 123.986 24.0187 124.541 26.6H117.789C117.383 25.7467 116.818 25.096 116.093 24.648C115.389 24.2 114.567 23.976 113.629 23.976C112.178 23.976 111.015 24.4987 110.141 25.544C109.287 26.568 108.861 27.944 108.861 29.672C108.861 31.4213 109.287 32.8187 110.141 33.864C111.015 34.888 112.178 35.4 113.629 35.4C114.567 35.4 115.389 35.176 116.093 34.728C116.818 34.28 117.383 33.6293 117.789 32.776H124.541C123.986 35.3573 122.749 37.4053 120.829 38.92C118.909 40.4133 116.541 41.16 113.725 41.16C111.506 41.16 109.543 40.68 107.837 39.72C106.13 38.7387 104.807 37.384 103.869 35.656C102.951 33.9067 102.493 31.912 102.493 29.672ZM138.327 41.224C136.215 41.224 134.273 40.7333 132.503 39.752C130.732 38.7493 129.324 37.3733 128.279 35.624C127.255 33.8533 126.743 31.8587 126.743 29.64C126.743 27.4213 127.255 25.4373 128.279 23.688C129.324 21.9173 130.732 20.5413 132.503 19.56C134.273 18.5787 136.215 18.088 138.327 18.088C140.46 18.088 142.401 18.5787 144.151 19.56C145.921 20.5413 147.319 21.9173 148.343 23.688C149.367 25.4373 149.879 27.4213 149.879 29.64C149.879 31.8587 149.367 33.8533 148.343 35.624C147.319 37.3733 145.921 38.7493 144.151 39.752C142.38 40.7333 140.439 41.224 138.327 41.224ZM138.327 35.4C139.927 35.4 141.185 34.8773 142.103 33.832C143.041 32.7867 143.511 31.3893 143.511 29.64C143.511 27.848 143.041 26.44 142.103 25.416C141.185 24.3707 139.927 23.848 138.327 23.848C136.705 23.848 135.436 24.3707 134.519 25.416C133.601 26.44 133.143 27.848 133.143 29.64C133.143 31.4107 133.601 32.8187 134.519 33.864C135.436 34.888 136.705 35.4 138.327 35.4Z" fill="#32CD32"/>
<path d="M6.24935 49.355V50.378H4.21435V57H2.96035V50.378H0.914352V49.355H6.24935ZM10.1483 57.099C9.57634 57.099 9.05934 56.9707 8.59734 56.714C8.13534 56.45 7.77234 56.0833 7.50834 55.614C7.24434 55.1373 7.11234 54.5873 7.11234 53.964C7.11234 53.348 7.248 52.8017 7.51934 52.325C7.79067 51.8483 8.161 51.4817 8.63034 51.225C9.09967 50.9683 9.624 50.84 10.2033 50.84C10.7827 50.84 11.307 50.9683 11.7763 51.225C12.2457 51.4817 12.616 51.8483 12.8873 52.325C13.1587 52.8017 13.2943 53.348 13.2943 53.964C13.2943 54.58 13.155 55.1263 12.8763 55.603C12.5977 56.0797 12.2163 56.45 11.7323 56.714C11.2557 56.9707 10.7277 57.099 10.1483 57.099ZM10.1483 56.01C10.471 56.01 10.7717 55.933 11.0503 55.779C11.3363 55.625 11.5673 55.394 11.7433 55.086C11.9193 54.778 12.0073 54.404 12.0073 53.964C12.0073 53.524 11.923 53.1537 11.7543 52.853C11.5857 52.545 11.362 52.314 11.0833 52.16C10.8047 52.006 10.504 51.929 10.1813 51.929C9.85867 51.929 9.558 52.006 9.27934 52.16C9.008 52.314 8.79167 52.545 8.63034 52.853C8.469 53.1537 8.38834 53.524 8.38834 53.964C8.38834 54.6167 8.55334 55.1227 8.88334 55.482C9.22067 55.834 9.64234 56.01 10.1483 56.01ZM16.976 50.84C17.4453 50.84 17.8597 50.9353 18.219 51.126C18.5857 51.3093 18.8717 51.5403 19.077 51.819V50.939H20.342V57.099C20.342 57.6563 20.2247 58.1513 19.99 58.584C19.7553 59.024 19.4143 59.3687 18.967 59.618C18.527 59.8673 17.999 59.992 17.383 59.992C16.5617 59.992 15.8797 59.7977 15.337 59.409C14.7943 59.0277 14.4863 58.507 14.413 57.847H15.656C15.7513 58.1623 15.953 58.4153 16.261 58.606C16.5763 58.804 16.9503 58.903 17.383 58.903C17.889 58.903 18.296 58.749 18.604 58.441C18.9193 58.133 19.077 57.6857 19.077 57.099V56.087C18.8643 56.373 18.5747 56.615 18.208 56.813C17.8487 57.0037 17.438 57.099 16.976 57.099C16.448 57.099 15.964 56.967 15.524 56.703C15.0913 56.4317 14.7467 56.0577 14.49 55.581C14.2407 55.097 14.116 54.5507 14.116 53.942C14.116 53.3333 14.2407 52.7943 14.49 52.325C14.7467 51.8557 15.0913 51.4927 15.524 51.236C15.964 50.972 16.448 50.84 16.976 50.84ZM19.077 53.964C19.077 53.546 18.989 53.183 18.813 52.875C18.6443 52.567 18.4207 52.3323 18.142 52.171C17.8633 52.0097 17.5627 51.929 17.24 51.929C16.9173 51.929 16.6167 52.0097 16.338 52.171C16.0593 52.325 15.832 52.556 15.656 52.864C15.4873 53.1647 15.403 53.524 15.403 53.942C15.403 54.36 15.4873 54.7267 15.656 55.042C15.832 55.3573 16.0593 55.5993 16.338 55.768C16.624 55.9293 16.9247 56.01 17.24 56.01C17.5627 56.01 17.8633 55.9293 18.142 55.768C18.4207 55.6067 18.6443 55.372 18.813 55.064C18.989 54.7487 19.077 54.382 19.077 53.964ZM27.5441 53.821C27.5441 54.0483 27.5294 54.2537 27.5001 54.437H22.8691C22.9057 54.921 23.0854 55.3097 23.4081 55.603C23.7307 55.8963 24.1267 56.043 24.5961 56.043C25.2707 56.043 25.7474 55.7607 26.0261 55.196H27.3791C27.1957 55.7533 26.8621 56.2117 26.3781 56.571C25.9014 56.923 25.3074 57.099 24.5961 57.099C24.0167 57.099 23.4961 56.9707 23.0341 56.714C22.5794 56.45 22.2201 56.0833 21.9561 55.614C21.6994 55.1373 21.5711 54.5873 21.5711 53.964C21.5711 53.3407 21.6957 52.7943 21.9451 52.325C22.2017 51.8483 22.5574 51.4817 23.0121 51.225C23.4741 50.9683 24.0021 50.84 24.5961 50.84C25.1681 50.84 25.6777 50.9647 26.1251 51.214C26.5724 51.4633 26.9207 51.8153 27.1701 52.27C27.4194 52.7173 27.5441 53.2343 27.5441 53.821ZM26.2351 53.425C26.2277 52.963 26.0627 52.5927 25.7401 52.314C25.4174 52.0353 25.0177 51.896 24.5411 51.896C24.1084 51.896 23.7381 52.0353 23.4301 52.314C23.1221 52.5853 22.9387 52.9557 22.8801 53.425H26.2351ZM30.2411 51.962V55.317C30.2411 55.5443 30.2925 55.7093 30.3951 55.812C30.5051 55.9073 30.6885 55.955 30.9451 55.955H31.7151V57H30.7251C30.1605 57 29.7278 56.868 29.4271 56.604C29.1265 56.34 28.9761 55.911 28.9761 55.317V51.962H28.2611V50.939H28.9761V49.432H30.2411V50.939H31.7151V51.962H30.2411ZM36.0059 50.84C36.4679 50.84 36.8786 50.939 37.2379 51.137C37.6046 51.335 37.8906 51.6283 38.0959 52.017C38.3086 52.4057 38.4149 52.875 38.4149 53.425V57H37.1719V53.612C37.1719 53.0693 37.0362 52.655 36.7649 52.369C36.4936 52.0757 36.1232 51.929 35.6539 51.929C35.1846 51.929 34.8106 52.0757 34.5319 52.369C34.2606 52.655 34.1249 53.0693 34.1249 53.612V57H32.8709V48.86H34.1249V51.643C34.3376 51.3863 34.6052 51.1883 34.9279 51.049C35.2579 50.9097 35.6172 50.84 36.0059 50.84ZM45.5695 53.821C45.5695 54.0483 45.5548 54.2537 45.5255 54.437H40.8945C40.9311 54.921 41.1108 55.3097 41.4335 55.603C41.7561 55.8963 42.1521 56.043 42.6215 56.043C43.2961 56.043 43.7728 55.7607 44.0515 55.196H45.4045C45.2211 55.7533 44.8875 56.2117 44.4035 56.571C43.9268 56.923 43.3328 57.099 42.6215 57.099C42.0421 57.099 41.5215 56.9707 41.0595 56.714C40.6048 56.45 40.2455 56.0833 39.9815 55.614C39.7248 55.1373 39.5965 54.5873 39.5965 53.964C39.5965 53.3407 39.7211 52.7943 39.9705 52.325C40.2271 51.8483 40.5828 51.4817 41.0375 51.225C41.4995 50.9683 42.0275 50.84 42.6215 50.84C43.1935 50.84 43.7031 50.9647 44.1505 51.214C44.5978 51.4633 44.9461 51.8153 45.1955 52.27C45.4448 52.7173 45.5695 53.2343 45.5695 53.821ZM44.2605 53.425C44.2531 52.963 44.0881 52.5927 43.7655 52.314C43.4428 52.0353 43.0431 51.896 42.5665 51.896C42.1338 51.896 41.7635 52.0353 41.4555 52.314C41.1475 52.5853 40.9641 52.9557 40.9055 53.425H44.2605ZM48.0575 51.819C48.2408 51.511 48.4828 51.2727 48.7835 51.104C49.0915 50.928 49.4545 50.84 49.8725 50.84V52.138H49.5535C49.0622 52.138 48.6882 52.2627 48.4315 52.512C48.1822 52.7613 48.0575 53.194 48.0575 53.81V57H46.8035V50.939H48.0575V51.819ZM63.8376 49.355L61.5716 57H60.1526L58.5466 51.214L56.8416 57L55.4336 57.011L53.2666 49.355H54.5976L56.1816 55.581L57.8976 49.355H59.3056L60.9006 55.548L62.4956 49.355H63.8376ZM70.4269 53.821C70.4269 54.0483 70.4122 54.2537 70.3829 54.437H65.7519C65.7885 54.921 65.9682 55.3097 66.2909 55.603C66.6135 55.8963 67.0095 56.043 67.4789 56.043C68.1535 56.043 68.6302 55.7607 68.9089 55.196H70.2619C70.0785 55.7533 69.7449 56.2117 69.2609 56.571C68.7842 56.923 68.1902 57.099 67.4789 57.099C66.8995 57.099 66.3789 56.9707 65.9169 56.714C65.4622 56.45 65.1029 56.0833 64.8389 55.614C64.5822 55.1373 64.4539 54.5873 64.4539 53.964C64.4539 53.3407 64.5785 52.7943 64.8279 52.325C65.0845 51.8483 65.4402 51.4817 65.8949 51.225C66.3569 50.9683 66.8849 50.84 67.4789 50.84C68.0509 50.84 68.5605 50.9647 69.0079 51.214C69.4552 51.4633 69.8035 51.8153 70.0529 52.27C70.3022 52.7173 70.4269 53.2343 70.4269 53.821ZM69.1179 53.425C69.1105 52.963 68.9455 52.5927 68.6229 52.314C68.3002 52.0353 67.9005 51.896 67.4239 51.896C66.9912 51.896 66.6209 52.0353 66.3129 52.314C66.0049 52.5853 65.8215 52.9557 65.7629 53.425H69.1179ZM80.0514 51.555C79.8534 51.1737 79.5784 50.8877 79.2264 50.697C78.8744 50.499 78.4674 50.4 78.0054 50.4C77.4994 50.4 77.0484 50.5137 76.6524 50.741C76.2564 50.9683 75.9447 51.291 75.7174 51.709C75.4974 52.127 75.3874 52.611 75.3874 53.161C75.3874 53.711 75.4974 54.1987 75.7174 54.624C75.9447 55.042 76.2564 55.3647 76.6524 55.592C77.0484 55.8193 77.4994 55.933 78.0054 55.933C78.6874 55.933 79.241 55.7423 79.6664 55.361C80.0917 54.9797 80.352 54.4627 80.4474 53.81H77.5764V52.809H81.7894V53.788C81.7087 54.382 81.496 54.9283 81.1514 55.427C80.814 55.9257 80.3704 56.3253 79.8204 56.626C79.2777 56.9193 78.6727 57.066 78.0054 57.066C77.2867 57.066 76.6304 56.901 76.0364 56.571C75.4424 56.2337 74.9694 55.768 74.6174 55.174C74.2727 54.58 74.1004 53.909 74.1004 53.161C74.1004 52.413 74.2727 51.742 74.6174 51.148C74.9694 50.554 75.4424 50.092 76.0364 49.762C76.6377 49.4247 77.294 49.256 78.0054 49.256C78.8194 49.256 79.5417 49.4577 80.1724 49.861C80.8104 50.257 81.2724 50.8217 81.5584 51.555H80.0514ZM84.2802 51.819C84.4635 51.511 84.7055 51.2727 85.0062 51.104C85.3142 50.928 85.6772 50.84 86.0952 50.84V52.138H85.7762C85.2848 52.138 84.9108 52.2627 84.6542 52.512C84.4048 52.7613 84.2802 53.194 84.2802 53.81V57H83.0262V50.939H84.2802V51.819ZM89.8769 57.099C89.3049 57.099 88.7879 56.9707 88.3259 56.714C87.8639 56.45 87.5009 56.0833 87.2369 55.614C86.9729 55.1373 86.8409 54.5873 86.8409 53.964C86.8409 53.348 86.9765 52.8017 87.2479 52.325C87.5192 51.8483 87.8895 51.4817 88.3589 51.225C88.8282 50.9683 89.3525 50.84 89.9319 50.84C90.5112 50.84 91.0355 50.9683 91.5049 51.225C91.9742 51.4817 92.3445 51.8483 92.6159 52.325C92.8872 52.8017 93.0229 53.348 93.0229 53.964C93.0229 54.58 92.8835 55.1263 92.6049 55.603C92.3262 56.0797 91.9449 56.45 91.4609 56.714C90.9842 56.9707 90.4562 57.099 89.8769 57.099ZM89.8769 56.01C90.1995 56.01 90.5002 55.933 90.7789 55.779C91.0649 55.625 91.2959 55.394 91.4719 55.086C91.6479 54.778 91.7359 54.404 91.7359 53.964C91.7359 53.524 91.6515 53.1537 91.4829 52.853C91.3142 52.545 91.0905 52.314 90.8119 52.16C90.5332 52.006 90.2325 51.929 89.9099 51.929C89.5872 51.929 89.2865 52.006 89.0079 52.16C88.7365 52.314 88.5202 52.545 88.3589 52.853C88.1975 53.1537 88.1169 53.524 88.1169 53.964C88.1169 54.6167 88.2819 55.1227 88.6119 55.482C88.9492 55.834 89.3709 56.01 89.8769 56.01ZM102.403 50.939L100.522 57H99.2015L97.9805 52.523L96.7595 57H95.4395L93.5475 50.939H94.8235L96.0885 55.812L97.3755 50.939H98.6845L99.9165 55.79L101.171 50.939H102.403Z" fill="#242424"/>
</svg>
