<svg width="40" height="40" viewBox="0 0 40 40" fill="none" xmlns="http://www.w3.org/2000/svg">
<g clip-path="url(#clip0_142_43)">
<path d="M27.7778 4.44434H12.2222C11.6329 4.44434 11.0676 4.67846 10.6509 5.09521C10.2341 5.51196 10 6.07719 10 6.66656V33.3332C10 33.9226 10.2341 34.4878 10.6509 34.9046C11.0676 35.3213 11.6329 35.5554 12.2222 35.5554H27.7778C28.3671 35.5554 28.9324 35.3213 29.3491 34.9046C29.7659 34.4878 30 33.9226 30 33.3332V6.66656C30 6.07719 29.7659 5.51196 29.3491 5.09521C28.9324 4.67846 28.3671 4.44434 27.7778 4.44434ZM12.2222 6.66656H27.7778V26.6666H12.2222V6.66656ZM12.2222 33.3332V28.8888H27.7778V33.3332H12.2222Z" fill="#32CD32"/>
<path d="M18.8889 30H21.1111V32.2222H18.8889V30Z" fill="#32CD32"/>
</g>
<defs>
<clipPath id="clip0_142_43">
<rect width="40" height="40" fill="white"/>
</clipPath>
</defs>
</svg>
