<svg width="25" height="50" viewBox="0 0 25 50" fill="none" xmlns="http://www.w3.org/2000/svg">
<path d="M4.2726 24.7585L24.481 3.34436C24.6473 3.17179 24.7789 2.9669 24.868 2.74157C24.957 2.51623 25.0019 2.27492 24.9999 2.03159C24.998 1.78826 24.9492 1.54775 24.8565 1.32397C24.7638 1.10019 24.629 0.897593 24.4599 0.727896C24.2907 0.558198 24.0907 0.424773 23.8712 0.33534C23.6517 0.245908 23.4172 0.202244 23.1813 0.206876C22.9453 0.211508 22.7126 0.264344 22.4966 0.362326C22.2806 0.460308 22.0855 0.60149 21.9228 0.777703L0.505542 23.4752C0.181375 23.8187 0 24.2792 0 24.7585C0 25.2378 0.181375 25.6983 0.505542 26.0418L21.9228 48.7393C22.0855 48.9155 22.2806 49.0567 22.4966 49.1547C22.7126 49.2526 22.9453 49.3055 23.1813 49.3101C23.4172 49.3147 23.6517 49.2711 23.8712 49.1817C24.0907 49.0922 24.2907 48.9588 24.4599 48.7891C24.629 48.6194 24.7638 48.4168 24.8565 48.193C24.9492 47.9692 24.998 47.7287 24.9999 47.4854C25.0019 47.2421 24.957 47.0008 24.868 46.7754C24.7789 46.5501 24.6473 46.3452 24.481 46.1726L4.2726 24.7585Z" fill="#32CD32"/>
</svg>
