<svg width="26" height="50" viewBox="0 0 26 50" fill="none" xmlns="http://www.w3.org/2000/svg">
<path d="M21.7274 24.7517L1.53725 46.1825C1.37102 46.3552 1.23966 46.5602 1.15077 46.7856C1.06188 47.011 1.01722 47.2523 1.01939 47.4956C1.02156 47.739 1.07051 47.9794 1.16339 48.2032C1.25629 48.4269 1.39128 48.6293 1.56056 48.7989C1.72984 48.9685 1.93005 49.1017 2.1496 49.191C2.36915 49.2802 2.60368 49.3237 2.83963 49.3189C3.07557 49.314 3.30824 49.261 3.52417 49.1629C3.7401 49.0647 3.935 48.9234 4.09761 48.747L25.4955 26.032C25.8194 25.6881 26.0004 25.2276 26 24.7482C25.9996 24.2689 25.8178 23.8086 25.4933 23.4653L4.05678 0.785433C3.89388 0.609351 3.69874 0.468333 3.48264 0.37053C3.26654 0.272723 3.03378 0.22008 2.79783 0.215643C2.56188 0.211206 2.32742 0.255057 2.10802 0.344673C1.88862 0.434285 1.68864 0.567872 1.51965 0.737708C1.35066 0.907543 1.21601 1.11026 1.1235 1.33411C1.03099 1.55796 0.982453 1.79852 0.9807 2.04185C0.978946 2.28518 1.02401 2.52646 1.11329 2.75172C1.20256 2.97698 1.33427 3.18175 1.50079 3.35419L21.7274 24.7517Z" fill="#32CD32"/>
</svg>
