<svg width="40" height="40" viewBox="0 0 40 40" fill="none" xmlns="http://www.w3.org/2000/svg">
<path d="M9.13589 3.32066C8.98831 3.13081 8.80203 2.97455 8.58941 2.86223C8.3768 2.74991 8.14272 2.68412 7.90273 2.66923C7.66273 2.65433 7.42231 2.69067 7.19744 2.77583C6.97257 2.86099 6.76839 2.99302 6.59847 3.16316L4.01355 5.7506C2.80609 6.96057 2.3611 8.67303 2.88859 10.1755C5.08034 16.3931 8.64129 22.0387 13.3083 26.6951C17.9646 31.3621 23.6102 34.9231 29.8277 37.1148C31.3302 37.6423 33.0426 37.1973 34.2526 35.9899L36.8375 33.4049C37.0077 33.235 37.1397 33.0308 37.2248 32.8059C37.31 32.5811 37.3463 32.3407 37.3315 32.1007C37.3166 31.8607 37.2508 31.6266 37.1385 31.414C37.0261 31.2013 36.8699 31.0151 36.68 30.8675L30.9127 26.3826C30.7097 26.2256 30.4738 26.1166 30.2227 26.0638C29.9716 26.011 29.7118 26.0157 29.4628 26.0776L23.9879 27.4451C23.2571 27.6265 22.4918 27.6162 21.7661 27.4151C21.0404 27.2141 20.3789 26.8292 19.8456 26.2976L13.7057 20.1552C13.1737 19.6222 12.7883 18.9608 12.5869 18.235C12.3854 17.5093 12.3747 16.7439 12.5558 16.0128L13.9257 10.538C13.9876 10.2889 13.9923 10.0291 13.9395 9.77802C13.8867 9.52691 13.7777 9.29101 13.6208 9.08802L9.13589 3.32066ZM4.71103 1.27821C5.1485 0.840591 5.67407 0.501051 6.25283 0.282134C6.83159 0.0632162 7.4503 -0.0300699 8.06788 0.00846988C8.68546 0.0470097 9.28777 0.216493 9.83482 0.505667C10.3819 0.794841 10.8612 1.19709 11.2408 1.6857L15.7257 7.45056C16.5482 8.50803 16.8382 9.8855 16.5132 11.1855L15.1457 16.6603C15.0755 16.9439 15.0796 17.2408 15.1575 17.5224C15.2354 17.804 15.3846 18.0607 15.5907 18.2678L21.733 24.4101C21.9404 24.6166 22.1975 24.7661 22.4795 24.844C22.7616 24.922 23.059 24.9258 23.3429 24.8551L28.8153 23.4877C29.4569 23.3282 30.1262 23.3162 30.7731 23.4526C31.42 23.589 32.0276 23.8702 32.5502 24.2751L38.315 28.76C40.3874 30.3725 40.5774 33.4349 38.7225 35.2874L36.1375 37.8723C34.2876 39.7223 31.5227 40.5347 28.9453 39.6273C22.3472 37.3088 16.357 33.5318 11.4208 28.5775C6.46691 23.642 2.68997 17.6527 0.371166 11.0555C-0.533806 8.48053 0.278669 5.7131 2.12861 3.86314L4.71103 1.27821Z" fill="#32CD32"/>
</svg>
