<svg width="35" height="40" viewBox="0 0 35 40" fill="none" xmlns="http://www.w3.org/2000/svg">
<path d="M35 0.178406H0V4.10422L12.7094 12.6625C8.85224 13.8038 5.65792 16.2726 3.82848 19.5264C1.99904 22.7802 1.68419 26.5526 2.95312 30.0146C3.58092 31.7296 4.57936 33.3167 5.89133 34.6851C7.20331 36.0535 8.80307 37.1764 10.5991 37.9895C12.3951 38.8026 14.3522 39.29 16.3584 39.4238C18.3645 39.5575 20.3804 39.3351 22.2906 38.7692C25.3542 37.8656 28.0216 36.1172 29.9127 33.7733C31.8037 31.4293 32.8218 28.6095 32.8218 25.7158C32.8218 22.8221 31.8037 20.0023 29.9127 17.6584C28.0216 15.3144 25.3542 13.566 22.2906 12.6625L35 4.10422V0.178406ZM23.9312 34.5293L17.5 31.1531L11.0688 34.5293L12.775 27.9928L7.10938 23.5959L14.5687 23.0266L17.5 16.8631L20.4312 23.0266L27.8906 23.5959L22.225 27.9928L23.9312 34.5293Z" fill="#32CD32"/>
</svg>
