<svg width="24" height="24" viewBox="0 0 24 24" fill="none" xmlns="http://www.w3.org/2000/svg">
<path d="M11.5287 0.471313C5.15908 0.471313 0 5.63039 0 12C0 18.3696 5.15908 23.5287 11.5287 23.5287C17.8983 23.5287 23.0573 18.3696 23.0573 12C23.0573 5.63039 17.8983 0.471313 11.5287 0.471313ZM11.5287 3.35348C12.4798 3.35348 13.3733 3.61288 14.2379 3.90109C13.6327 4.47753 12.9409 4.99632 13.0562 5.51511C13.1715 6.0339 15.0449 5.88979 15.0449 6.95619C15.0449 7.73438 13.8344 7.96495 14.6702 8.85842C15.679 9.86718 12.8256 11.6829 12.768 13.0087C12.6815 15.4009 15.189 15.8044 17.1777 15.8044C18.3882 15.8044 18.7053 16.3809 18.6188 17.0726C17.0624 19.2919 14.4108 20.6753 11.4998 20.6753C10.4046 20.6753 9.39587 20.4159 8.44475 20.0412C9.07883 18.7731 7.63774 16.2656 6.28313 15.4586C5.62023 14.7957 4.20796 15.0551 3.40096 14.738C3.14156 13.9599 2.88217 13.1817 2.85335 12.317C2.93981 12.1729 3.08392 12.0576 3.31449 12.0576C3.8621 12.0576 4.61147 13.1529 5.01497 13.0376C5.53376 12.9223 2.88217 9.26192 4.1215 8.54138C4.69793 8.19552 5.8508 9.66543 5.47612 8.08024C5.13026 6.61033 6.5137 7.27323 7.37835 6.89855C8.12771 6.58151 8.67533 5.71686 7.75303 5.19807C7.5801 5.1116 7.37835 4.90985 7.11895 4.65046C8.41593 3.87227 9.91466 3.3823 11.5287 3.3823V3.35348ZM18.1865 6.49504C18.7053 7.12912 19.1088 7.82084 19.4546 8.5702V8.65667C19.3393 8.85842 19.1376 8.97371 18.8206 9.29075C18.0135 10.0978 17.8983 8.68549 17.5524 8.39727C17.1777 8.05141 15.8231 8.45492 15.6502 8.02259C15.4484 7.5038 17.0913 6.81208 18.1865 6.49504Z" fill="white"/>
</svg>
