<svg width="40" height="40" viewBox="0 0 40 40" fill="none" xmlns="http://www.w3.org/2000/svg">
<path d="M12.09 30.8232L13.2967 31.5283C15.3315 32.7153 17.6459 33.3383 20.0017 33.3333C22.6387 33.3333 25.2166 32.5513 27.4093 31.0862C29.6019 29.6211 31.3109 27.5387 32.32 25.1024C33.3292 22.666 33.5933 19.9851 33.0788 17.3987C32.5643 14.8123 31.2944 12.4365 29.4297 10.5718C27.565 8.70713 25.1893 7.43725 22.6029 6.92278C20.0164 6.40831 17.3356 6.67236 14.8992 7.68153C12.4629 8.69069 10.3805 10.3997 8.91539 12.5923C7.45031 14.785 6.66832 17.3628 6.66832 19.9999C6.66346 22.3564 7.28711 24.6715 8.47499 26.7066L9.17832 27.9132L8.08999 31.9149L12.09 30.8232ZM3.34165 36.6666L5.59499 28.3866C4.10992 25.8415 3.32982 22.9466 3.33499 19.9999C3.33499 10.7949 10.7967 3.33325 20.0017 3.33325C29.2067 3.33325 36.6683 10.7949 36.6683 19.9999C36.6683 29.2049 29.2067 36.6666 20.0017 36.6666C17.0562 36.6717 14.1626 35.8922 11.6183 34.4083L3.34165 36.6666ZM13.9867 12.1799C14.2111 12.1644 14.435 12.1621 14.6583 12.1733C14.7483 12.1799 14.8383 12.1888 14.9283 12.1999C15.1933 12.2299 15.485 12.3916 15.5833 12.6149C16.08 13.7427 16.5622 14.876 17.03 16.0149C17.1333 16.2683 17.0717 16.5933 16.875 16.9099C16.775 17.0716 16.6183 17.2983 16.4367 17.5299C16.2483 17.7716 15.8433 18.2149 15.8433 18.2149C15.8433 18.2149 15.6783 18.4116 15.7417 18.6566C15.765 18.7499 15.8417 18.8849 15.9117 18.9983L16.01 19.1566C16.4367 19.8683 17.01 20.5899 17.71 21.2699C17.91 21.4633 18.105 21.6616 18.315 21.8466C19.095 22.5349 19.9783 23.0966 20.9317 23.5133L20.94 23.5166C21.0817 23.5783 21.1533 23.6116 21.36 23.6999C21.4633 23.7433 21.5694 23.7799 21.6783 23.8099C21.7183 23.821 21.7589 23.8271 21.8 23.8283C21.895 23.8319 21.9895 23.8122 22.0752 23.771C22.1609 23.7297 22.2352 23.6681 22.2917 23.5916C23.4967 22.1316 23.6083 22.0366 23.6167 22.0366V22.0399C23.7004 21.9615 23.7999 21.9021 23.9086 21.8656C24.0173 21.829 24.1326 21.8163 24.2467 21.8283C24.3489 21.8327 24.4472 21.8549 24.5417 21.8949C25.4267 22.2999 26.875 22.9316 26.875 22.9316L27.845 23.3666C28.0083 23.4449 28.1567 23.6299 28.1617 23.8083C28.1683 23.9199 28.1783 24.0999 28.14 24.4299C28.0867 24.8616 27.9567 25.3799 27.8267 25.6516C27.7365 25.8364 27.6185 26.0061 27.4767 26.1549C27.3083 26.3313 27.1242 26.492 26.9267 26.6349C26.7889 26.7371 26.7194 26.7871 26.7183 26.7849C26.511 26.9165 26.2981 27.0388 26.08 27.1516C25.6507 27.379 25.1768 27.5098 24.6917 27.5349C24.3833 27.5516 24.075 27.5749 23.765 27.5583C23.7517 27.5583 22.8183 27.4133 22.8183 27.4133C20.4488 26.7899 18.2574 25.6223 16.4183 24.0033C16.0417 23.6716 15.6917 23.3149 15.335 22.9599C13.855 21.4849 12.7333 19.8933 12.0517 18.3899C11.7058 17.652 11.5185 16.8497 11.5017 16.0349C11.4954 15.0228 11.8267 14.0375 12.4433 13.2349C12.565 13.0783 12.68 12.9149 12.8783 12.7266C13.0883 12.5266 13.2233 12.4199 13.3683 12.3466C13.5617 12.2516 13.7717 12.195 13.9867 12.1799Z" fill="#32CD32"/>
</svg>
