<svg width="30" height="30" viewBox="0 0 30 30" fill="none" xmlns="http://www.w3.org/2000/svg">
<path d="M6.25 25.6251C5.38167 25.6251 4.64417 25.321 4.0375 24.7126C3.42917 24.106 3.125 23.3685 3.125 22.5001V13.7501C3.125 12.8818 3.42917 12.1443 4.0375 11.5376C4.64333 10.9293 5.38083 10.6251 6.25 10.6251C6.76417 10.6251 7.23583 10.7397 7.665 10.9689C8.09417 11.198 8.46167 11.5001 8.7675 11.8751H10.625V6.05762H21.875V11.8751H23.75C24.6183 11.8751 25.3558 12.1793 25.9625 12.7876C26.5708 13.3943 26.875 14.1318 26.875 15.0001V24.3751H8.7675C8.46083 24.7501 8.09333 25.0522 7.665 25.2814C7.23667 25.5105 6.765 25.6251 6.25 25.6251ZM6.25 24.3751C6.76417 24.3751 7.20542 24.1914 7.57375 23.8239C7.94125 23.4555 8.125 23.0143 8.125 22.5001V13.7501C8.125 13.236 7.94125 12.7947 7.57375 12.4264C7.20542 12.0589 6.76417 11.8751 6.25 11.8751C5.73583 11.8751 5.29458 12.0589 4.92625 12.4264C4.55875 12.7947 4.375 13.236 4.375 13.7501V22.5001C4.375 23.0143 4.55875 23.4555 4.92625 23.8239C5.29458 24.1914 5.73583 24.3751 6.25 24.3751ZM11.875 11.8751H20.625V7.30762H11.875V11.8751ZM9.375 23.1251H25.625V15.0001C25.625 14.486 25.4412 14.0447 25.0737 13.6764C24.7054 13.3089 24.2642 13.1251 23.75 13.1251H9.375V23.1251ZM18.75 17.5001C19.1042 17.5001 19.4013 17.3801 19.6413 17.1401C19.8813 16.9001 20.0008 16.6035 20 16.2501C19.9992 15.8968 19.8792 15.6001 19.64 15.3601C19.4008 15.1201 19.1042 15.0001 18.75 15.0001C18.3958 15.0001 18.0992 15.1201 17.86 15.3601C17.6208 15.6001 17.5008 15.8968 17.5 16.2501C17.4992 16.6035 17.6192 16.9005 17.86 17.1414C18.1008 17.3822 18.3975 17.5018 18.75 17.5001ZM22.5 17.5001C22.8542 17.5001 23.1512 17.3801 23.3912 17.1401C23.6312 16.9001 23.7508 16.6035 23.75 16.2501C23.7492 15.8968 23.6292 15.6001 23.39 15.3601C23.1508 15.1201 22.8542 15.0001 22.5 15.0001C22.1458 15.0001 21.8492 15.1201 21.61 15.3601C21.3708 15.6001 21.2508 15.8968 21.25 16.2501C21.2492 16.6035 21.3692 16.9005 21.61 17.1414C21.8508 17.3822 22.1475 17.5018 22.5 17.5001ZM18.75 21.2501C19.1042 21.2501 19.4013 21.1301 19.6413 20.8901C19.8813 20.6501 20.0008 20.3535 20 20.0001C19.9992 19.6468 19.8792 19.3501 19.64 19.1101C19.4008 18.8701 19.1042 18.7501 18.75 18.7501C18.3958 18.7501 18.0992 18.8701 17.86 19.1101C17.6208 19.3501 17.5008 19.6468 17.5 20.0001C17.4992 20.3535 17.6192 20.6505 17.86 20.8914C18.1008 21.1322 18.3975 21.2518 18.75 21.2501ZM22.5 21.2501C22.8542 21.2501 23.1512 21.1301 23.3912 20.8901C23.6312 20.6501 23.7508 20.3535 23.75 20.0001C23.7492 19.6468 23.6292 19.3501 23.39 19.1101C23.1508 18.8701 22.8542 18.7501 22.5 18.7501C22.1458 18.7501 21.8492 18.8701 21.61 19.1101C21.3708 19.3501 21.2508 19.6468 21.25 20.0001C21.2492 20.3535 21.3692 20.6505 21.61 20.8914C21.8508 21.1322 22.1475 21.2518 22.5 21.2501ZM11.25 21.2501H16.25V15.0001H11.25V21.2501Z" fill="white"/>
</svg>
