<svg width="30" height="30" viewBox="0 0 30 30" fill="none" xmlns="http://www.w3.org/2000/svg">
<path d="M3.75 6.25V5.625C3.58424 5.625 3.42527 5.69085 3.30806 5.80806C3.19085 5.92527 3.125 6.08424 3.125 6.25H3.75ZM26.25 6.25H26.875C26.875 6.08424 26.8092 5.92527 26.6919 5.80806C26.5747 5.69085 26.4158 5.625 26.25 5.625V6.25ZM3.75 6.875H26.25V5.625H3.75V6.875ZM25.625 6.25V21.25H26.875V6.25H25.625ZM23.75 23.125H6.25V24.375H23.75V23.125ZM4.375 21.25V6.25H3.125V21.25H4.375ZM6.25 23.125C5.75272 23.125 5.27581 22.9275 4.92417 22.5758C4.57254 22.2242 4.375 21.7473 4.375 21.25H3.125C3.125 22.0788 3.45424 22.8737 4.04029 23.4597C4.62634 24.0458 5.4212 24.375 6.25 24.375V23.125ZM25.625 21.25C25.625 21.7473 25.4275 22.2242 25.0758 22.5758C24.7242 22.9275 24.2473 23.125 23.75 23.125V24.375C24.5788 24.375 25.3737 24.0458 25.9597 23.4597C26.5458 22.8737 26.875 22.0788 26.875 21.25H25.625Z" fill="white"/>
<path d="M3.75 6.25L15 17.5L26.25 6.25" stroke="white" stroke-linecap="round" stroke-linejoin="round"/>
</svg>
