<svg width="30" height="30" viewBox="0 0 30 30" fill="none" xmlns="http://www.w3.org/2000/svg">
<g clip-path="url(#clip0_150_287)">
<path d="M20.8333 3.33325H9.16667C8.72464 3.33325 8.30072 3.50885 7.98816 3.82141C7.6756 4.13397 7.5 4.55789 7.5 4.99992V24.9999C7.5 25.4419 7.6756 25.8659 7.98816 26.1784C8.30072 26.491 8.72464 26.6666 9.16667 26.6666H20.8333C21.2754 26.6666 21.6993 26.491 22.0118 26.1784C22.3244 25.8659 22.5 25.4419 22.5 24.9999V4.99992C22.5 4.55789 22.3244 4.13397 22.0118 3.82141C21.6993 3.50885 21.2754 3.33325 20.8333 3.33325ZM9.16667 4.99992H20.8333V19.9999H9.16667V4.99992ZM9.16667 24.9999V21.6666H20.8333V24.9999H9.16667Z" fill="white"/>
<path d="M14.1667 22.5H15.8333V24.1667H14.1667V22.5Z" fill="#32CD32"/>
</g>
<defs>
<clipPath id="clip0_150_287">
<rect width="30" height="30" fill="white"/>
</clipPath>
</defs>
</svg>
