<svg width="30" height="30" viewBox="0 0 30 30" fill="none" xmlns="http://www.w3.org/2000/svg">
<path d="M9.06749 23.1175L9.97249 23.6462C11.4986 24.5365 13.2345 25.0038 15.0012 25C16.9791 25 18.9125 24.4135 20.5569 23.3147C22.2014 22.2159 23.4832 20.6541 24.24 18.8268C24.9969 16.9996 25.1949 14.9889 24.8091 13.0491C24.4232 11.1093 23.4708 9.32746 22.0723 7.92893C20.6738 6.53041 18.892 5.578 16.9521 5.19215C15.0123 4.8063 13.0017 5.00433 11.1744 5.7612C9.34714 6.51808 7.78536 7.79981 6.68654 9.4443C5.58773 11.0888 5.00124 13.0222 5.00124 15C4.99759 16.7673 5.46533 18.5037 6.35624 20.03L6.88374 20.935L6.06749 23.9363L9.06749 23.1175ZM2.50624 27.5L4.19624 21.29C3.08244 19.3812 2.49737 17.21 2.50124 15C2.50124 8.09625 8.09749 2.5 15.0012 2.5C21.905 2.5 27.5012 8.09625 27.5012 15C27.5012 21.9037 21.905 27.5 15.0012 27.5C12.7922 27.5038 10.622 26.9192 8.71374 25.8063L2.50624 27.5ZM10.49 9.135C10.6583 9.12333 10.8262 9.12167 10.9937 9.13C11.0612 9.135 11.1287 9.14167 11.1962 9.15C11.395 9.1725 11.6137 9.29375 11.6875 9.46125C12.06 10.3071 12.4217 11.1571 12.7725 12.0113C12.85 12.2013 12.8037 12.445 12.6562 12.6825C12.5812 12.8038 12.4637 12.9737 12.3275 13.1475C12.1862 13.3287 11.8825 13.6613 11.8825 13.6613C11.8825 13.6613 11.7587 13.8088 11.8062 13.9925C11.8237 14.0625 11.8812 14.1638 11.9337 14.2488L12.0075 14.3675C12.3275 14.9013 12.7575 15.4425 13.2825 15.9525C13.4325 16.0975 13.5787 16.2463 13.7362 16.385C14.3212 16.9012 14.9837 17.3225 15.6987 17.635L15.705 17.6375C15.8112 17.6837 15.865 17.7088 16.02 17.775C16.0975 17.8075 16.1771 17.835 16.2587 17.8575C16.2887 17.8658 16.3192 17.8704 16.35 17.8713C16.4213 17.874 16.4921 17.8592 16.5564 17.8283C16.6207 17.7973 16.6764 17.7512 16.7187 17.6937C17.6225 16.5988 17.7062 16.5275 17.7125 16.5275V16.53C17.7753 16.4712 17.85 16.4266 17.9315 16.3992C18.013 16.3718 18.0995 16.3623 18.185 16.3713C18.2617 16.3746 18.3354 16.3912 18.4062 16.4213C19.07 16.725 20.1562 17.1987 20.1562 17.1987L20.8837 17.525C21.0062 17.5838 21.1175 17.7225 21.1212 17.8562C21.1262 17.94 21.1337 18.075 21.105 18.3225C21.065 18.6462 20.9675 19.035 20.87 19.2388C20.8024 19.3773 20.7139 19.5047 20.6075 19.6162C20.4813 19.7486 20.3432 19.8691 20.195 19.9762C20.0917 20.0529 20.0396 20.0904 20.0387 20.0887C19.8833 20.1874 19.7235 20.2792 19.56 20.3638C19.238 20.5343 18.8826 20.6324 18.5187 20.6512C18.2875 20.6637 18.0562 20.6812 17.8237 20.6688C17.8137 20.6688 17.1137 20.56 17.1137 20.56C15.3366 20.0925 13.693 19.2168 12.3137 18.0025C12.0312 17.7538 11.7687 17.4862 11.5012 17.22C10.3912 16.1138 9.54999 14.92 9.03874 13.7925C8.77937 13.239 8.63885 12.6374 8.62624 12.0263C8.62154 11.2672 8.87006 10.5282 9.33249 9.92625C9.42374 9.80875 9.50999 9.68625 9.65874 9.545C9.81624 9.395 9.91749 9.315 10.0262 9.26C10.1713 9.18875 10.3288 9.1463 10.49 9.135Z" fill="white"/>
</svg>
