<svg width="20" height="20" viewBox="0 0 20 20" fill="none" xmlns="http://www.w3.org/2000/svg">
<path d="M4.56795 1.66033C4.49416 1.56541 4.40101 1.48727 4.29471 1.43111C4.1884 1.37496 4.07136 1.34206 3.95136 1.33461C3.83137 1.32717 3.71116 1.34534 3.59872 1.38792C3.48629 1.4305 3.3842 1.49651 3.29924 1.58158L2.00678 2.8753C1.40304 3.48028 1.18055 4.33651 1.44429 5.08775C2.54017 8.19655 4.32065 11.0194 6.65413 13.3475C8.9823 15.681 11.8051 17.4615 14.9139 18.5574C15.6651 18.8212 16.5213 18.5987 17.1263 17.9949L18.4188 16.7025C18.5038 16.6175 18.5698 16.5154 18.6124 16.403C18.655 16.2905 18.6732 16.1703 18.6657 16.0503C18.6583 15.9303 18.6254 15.8133 18.5692 15.707C18.5131 15.6007 18.4349 15.5075 18.34 15.4337L15.4564 13.1913C15.3549 13.1128 15.2369 13.0583 15.1114 13.0319C14.9858 13.0055 14.8559 13.0079 14.7314 13.0388L11.994 13.7225C11.6285 13.8132 11.2459 13.8081 10.8831 13.7076C10.5202 13.6071 10.1894 13.4146 9.92278 13.1488L6.85287 10.0776C6.58686 9.81108 6.39416 9.48038 6.29343 9.11752C6.1927 8.75467 6.18735 8.37195 6.27789 8.00642L6.96287 5.26899C6.99382 5.14447 6.99617 5.01457 6.96976 4.88901C6.94335 4.76345 6.88886 4.6455 6.81038 4.54401L4.56795 1.66033ZM2.35551 0.639103C2.57425 0.420295 2.83703 0.250526 3.12641 0.141067C3.41579 0.0316081 3.72515 -0.0150349 4.03394 0.00423494C4.34273 0.0235048 4.64388 0.108247 4.91741 0.252833C5.19094 0.39742 5.43058 0.598544 5.62041 0.842848L7.86284 3.72528C8.27408 4.25401 8.41908 4.94275 8.25658 5.59273L7.57285 8.33017C7.53775 8.47196 7.53978 8.62041 7.57875 8.76119C7.61772 8.90198 7.69232 9.03034 7.79534 9.1339L10.8665 12.2051C10.9702 12.3083 11.0988 12.383 11.2398 12.422C11.3808 12.461 11.5295 12.4629 11.6715 12.4276L14.4076 11.7438C14.7284 11.6641 15.0631 11.6581 15.3866 11.7263C15.71 11.7945 16.0138 11.9351 16.2751 12.1376L19.1575 14.38C20.1937 15.1862 20.2887 16.7175 19.3612 17.6437L18.0688 18.9362C17.1438 19.8611 15.7613 20.2674 14.4726 19.8136C11.1736 18.6544 8.17851 16.7659 5.71041 14.2888C3.23345 11.821 1.34499 8.82637 0.185583 5.52773C-0.266903 4.24027 0.139334 2.85655 1.06431 1.93157L2.35551 0.639103Z" fill="white"/>
</svg>
