<svg width="31" height="31" viewBox="0 0 31 31" fill="none" xmlns="http://www.w3.org/2000/svg">
<path d="M23.5987 7.75016C24.9033 10.5531 24.6062 13.8597 23.1725 16.5464C21.9583 18.7293 20.2146 20.5764 18.7292 22.6043C18.0833 23.5085 17.4375 24.4772 16.9596 25.5235C16.7917 25.8722 16.6754 26.2339 16.5462 26.5956C16.4171 26.9572 16.3008 27.3189 16.1846 27.6806C16.0683 28.0164 15.9262 28.4168 15.5 28.4168C14.9962 28.4168 14.8542 27.8485 14.7508 27.461C14.4408 26.5181 14.1308 25.6139 13.6529 24.7485C13.1104 23.7281 12.4258 22.7852 11.7283 21.8681L23.5987 7.75016ZM11.78 10.876L7.51748 15.9393C8.3054 17.6056 9.48082 19.0264 10.6046 20.4472C10.8758 20.7702 11.1471 21.106 11.4054 21.4547L16.7917 15.0739L16.74 15.0868C14.8542 15.7327 12.7617 14.7768 12.0125 12.9168C11.9092 12.6972 11.8317 12.4389 11.78 12.1806C11.7077 11.7531 11.7077 11.3164 11.78 10.8889V10.876ZM8.49915 5.96766L8.48623 5.98058C6.39373 8.6285 6.03207 12.3097 7.28498 15.4227L12.4387 9.30016L12.3742 9.23558L8.49915 5.96766ZM18.3675 3.0485L14.2083 7.96975L14.26 7.95683C15.9908 7.36266 17.9283 8.11183 18.8067 9.68766C19.0004 10.0493 19.1554 10.4368 19.2071 10.8243C19.2846 11.3152 19.3104 11.6639 19.22 12.1418V12.1547L23.3533 7.24641C22.2717 5.28325 20.4995 3.7918 18.3804 3.06141L18.3675 3.0485ZM12.7746 8.89975L17.825 2.8935L17.7733 2.88058C17.0242 2.68683 16.2621 2.5835 15.5 2.5835C12.9554 2.5835 10.5529 3.68141 8.8479 5.56725L8.82207 5.58016L12.7746 8.89975Z" fill="white"/>
</svg>
